HIERARCHY
ROOT Hips
{
  OFFSET -0.374924 99.1592 -154.97
  CHANNELS 6 Xposition Yposition Zposition Zrotation Xrotation Yrotation
  JOINT RightUpLeg
  {
    OFFSET -8.9458 -8.66707 0.101652
    CHANNELS 3 Zrotation Xrotation Yrotation
    JOINT RightLeg
    {
      OFFSET 0 -44.4227 1.3727
      CHANNELS 3 Zrotation Xrotation Yrotation
      JOINT RightFoot
      {
        OFFSET 0.253549 -42.0924 -1.46059
        CHANNELS 3 Zrotation Xrotation Yrotation
        JOINT RightToes
        {
          OFFSET 0.04 -4.41509 8.4991
          CHANNELS 3 Zrotation Xrotation Yrotation
          End Site
          {
            OFFSET -0.08 -0.137448 9.77979
          }
        }
      }
    }
  }
  JOINT Spine
  {
    OFFSET 0 11.8905 0
    CHANNELS 3 Zrotation Xrotation Yrotation
    JOINT Spine1
    {
      OFFSET 0 25.6574 0.127663
      CHANNELS 3 Zrotation Xrotation Yrotation
      JOINT HEad
      {
        OFFSET 0 8.73416 0.011341
        CHANNELS 3 Zrotation Xrotation Yrotation
        End Site
        {
          OFFSET -0.29 12.7742 2.51395
        }
      }
      JOINT LeftShoulder1
      {
        OFFSET 8.99 -0.362252 -0.22
        CHANNELS 3 Zrotation Xrotation Yrotation
        JOINT LeftArm
        {
          OFFSET 10.2827 -0.00338 0.322123
          CHANNELS 3 Zrotation Xrotation Yrotation
          JOINT LeftForeArm
          {
            OFFSET 32.7669 0.099144 -1.42434
            CHANNELS 3 Zrotation Xrotation Yrotation
            JOINT LeftHand
            {
              OFFSET 27.5643 0.085362 1.02216
              CHANNELS 3 Zrotation Xrotation Yrotation
              End Site
              {
                OFFSET 16.7443 -0.6 1.50291
              }
            }
          }
        }
      }
      JOINT RightShoulder
      {
        OFFSET -8.99 -0.362252 -0.22
        CHANNELS 3 Zrotation Xrotation Yrotation
        JOINT RightArm
        {
          OFFSET -10.2827 -0.00338 0.322123
          CHANNELS 3 Zrotation Xrotation Yrotation
          JOINT RightForeArm
          {
            OFFSET -32.8971 0.099144 -1.42434
            CHANNELS 3 Zrotation Xrotation Yrotation
            JOINT RightHand
            {
              OFFSET -27.4921 0.085362 1.02216
              CHANNELS 3 Zrotation Xrotation Yrotation
              End Site
              {
                OFFSET -16.6312 -0.6 1.50291
              }
            }
          }
        }
      }
    }
  }
  JOINT LeftUpLeg
  {
    OFFSET 8.9458 -8.66707 0.101652
    CHANNELS 3 Zrotation Xrotation Yrotation
    JOINT LeftLeg
    {
      OFFSET 0 -44.4227 1.3727
      CHANNELS 3 Zrotation Xrotation Yrotation
      JOINT LeftFoot
      {
        OFFSET -0.253549 -42.0924 -1.46059
        CHANNELS 3 Zrotation Xrotation Yrotation
        JOINT LeftToes
        {
          OFFSET -0.04 -4.41509 8.4991
          CHANNELS 3 Zrotation Xrotation Yrotation
          End Site
          {
            OFFSET 0.08 -0.047448 9.77979
          }
        }
      }
    }
  }
}
MOTION
Frames:	7
Frame Time:	0.0166667
-1.35666 96.3313 13.1883 1.72187 -1.69976 -6.78173 -6.43254 8.37062 -0.711179 7.80997 36.6534 5.58993 0.282061 -16.3194 -0.0969733 -13.4825 -3.67046 4.39183 3.46017 1.14664 -0.13057 -0.668277 1.23179 0.149264 -9.80876 7.72607 0.568309 6.7711e-016 -4.96962e-017 -0 -76.3827 -21.9551 3.34915 -29.7687 14.8768 -12.1367 0.368473 9.90896 -0.00117927 -0.992248 0.212386 -0.701006 94.4073 -23.6875 22.0328 14.7547 13.9808 12.2288 -0.369625 9.91382 0.00119887 -0.846907 -17.9192 0.107167 -10.4321 7.52559 28.8666 -8.99385 -7.6446 -0.324826 -10.9296 9.95992 5.5581 
-1.22619 96.5105 15.1255 2.37265 -2.18291 -5.99492 -7.1831 7.56299 -1.06211 7.48176 40.1015 4.45087 1.70073 -12.4541 -0.0154349 -15.9233 -3.19721 5.98798 3.06545 1.15923 -0.380157 -1.67554 1.68566 0.15009 -9.30515 8.41646 0.188454 4.16205e-016 -2.98177e-016 -0 -76.4075 -21.6204 2.2546 -29.3444 14.6511 -11.4389 0.368473 9.90896 -0.00117927 -0.616058 0.197073 -1.04953 94.2198 -24.6768 20.6959 14.7236 13.9513 12.0611 -0.369625 9.91382 0.00119887 -2.26834 -17.053 0.940721 -9.9927 9.3195 26.4499 -9.01836 -9.01581 -0.432437 -12.1812 10.961 6.27683 
-1.0481 96.6527 16.9241 2.98225 -2.60153 -5.48088 -7.88802 6.02567 -1.40498 7.09272 44.3555 4.13359 2.80751 -8.60178 0.0112251 -16.6089 -2.27831 7.02997 2.57149 1.21856 -0.532267 -2.34734 2.28239 0.151655 -9.11242 8.86387 -0.0113826 -9.93923e-017 0 -0 -76.6559 -21.2678 1.1314 -29.0195 14.5715 -11.2025 0.368473 9.90896 -0.00117927 -0.797502 0.170511 -1.30305 94.493 -25.4754 19.6053 14.5441 13.9079 11.8462 -0.369625 9.91382 0.00119887 -3.64047 -16.0981 2.35405 -9.34128 10.8254 23.9228 -9.034 -10.3038 -0.531686 -12.8276 11.603 6.71866 
-0.851593 96.7272 18.5881 3.58573 -2.76868 -5.13762 -8.30073 3.71739 -2.42332 5.31221 49.5215 7.0402 2.85899 -5.80693 -0.0347207 -12.8105 -0.00496395 6.72904 1.86436 1.40674 -0.565269 -2.76775 2.54917 0.159551 -9.10913 9.15231 -0.218591 9.93923e-017 5.96354e-016 -0 -76.8438 -20.7237 0.30322 -28.8892 14.6508 -11.5107 0.368473 9.90896 -0.00117927 -1.07175 0.145086 -1.57831 94.6276 -26.2656 18.5199 14.4116 13.8593 11.5484 -0.369625 9.91382 0.00119887 -4.66827 -15.2671 2.32936 -9.28808 11.6216 23.3593 -8.88951 -11.3143 -0.596871 -12.169 11.4794 6.51724 
-0.657808 96.8004 20.1633 4.08918 -2.79569 -4.9694 -8.57196 0.932298 -3.12994 2.47461 54.6634 10.5332 2.55585 -4.01413 -0.0953946 -7.48263 2.33987 5.71329 1.15913 1.61781 -0.540739 -2.99752 2.72106 0.168088 -9.22421 9.24972 -0.348314 -7.20594e-016 0 -7.95139e-016 -76.9834 -20.0801 -0.377802 -28.8929 14.8548 -12.2167 0.368473 9.90896 -0.00117927 -1.40026 0.121371 -1.82236 94.7638 -26.9724 17.5822 14.2678 13.8086 11.2295 -0.369625 9.91382 0.00119887 -5.40017 -14.4378 1.5501 -9.60635 11.8728 23.8684 -8.73586 -12.2072 -0.650793 -11.2155 11.0101 6.09485 
-0.502526 96.9345 21.6893 4.42058 -2.71927 -4.97211 -8.52472 -2.10389 -2.54638 0.758252 59.2326 10.3583 2.48151 -3.80497 -0.107759 -2.6322 3.71428 4.171 0.631854 1.77734 -0.513245 -3.13867 2.87263 0.172927 -9.35166 9.12823 -0.362185 -2.73329e-016 0 7.95139e-016 -76.9613 -19.3564 -0.897494 -29.0215 15.1756 -13.2821 0.368473 9.90896 -0.00117927 -1.56972 0.103598 -2.03718 94.8526 -27.5671 16.8825 14.1182 13.7651 10.9659 -0.369625 9.91382 0.00119887 -5.76141 -13.5559 -0.423306 -10.3684 11.5216 25.7246 -8.70516 -13.1072 -0.711215 -10.6861 10.4434 5.72868 
-0.370999 97.1112 23.1896 4.57003 -2.57801 -5.06897 -8.18673 -5.25075 -1.35121 0.376597 63.1729 8.25078 2.19744 -4.31291 -0.111123 1.30667 4.26085 2.55568 0.286687 1.87285 -0.482159 -3.15131 3.01253 0.175611 -9.46695 8.85929 -0.309192 2.48481e-016 -3.97569e-016 -7.95139e-016 -76.8793 -18.59 -1.42237 -29.1906 15.5342 -14.4724 0.368473 9.90896 -0.00117927 -1.63912 0.093152 -2.17463 94.8737 -28.0981 16.3435 13.9677 13.7202 10.6772 -0.369625 9.91382 0.00119887 -5.82098 -12.5906 -2.2443 -11.1148 10.9025 27.4806 -8.71032 -13.9246 -0.769018 -10.7731 9.88669 5.49364 
